<svg id="eAQKdR9Fr8H1" xmlns="http://www.w3.org/2000/svg" xmlns:xlink="http://www.w3.org/1999/xlink" viewBox="0 0 68 94" shape-rendering="geometricPrecision" text-rendering="geometricPrecision"><style><![CDATA[#eAQKdR9Fr8H8_to {animation: eAQKdR9Fr8H8_to__to 3000ms linear infinite normal forwards}@keyframes eAQKdR9Fr8H8_to__to { 0% {transform: translate(17.933002px,40.649399px)} 30% {transform: translate(20.733002px,43.649399px)} 100% {transform: translate(13.933002px,40.649399px)}} #eAQKdR9Fr8H9_to {animation: eAQKdR9Fr8H9_to__to 3000ms linear infinite normal forwards}@keyframes eAQKdR9Fr8H9_to__to { 0% {transform: translate(45.207451px,49.566px)} 30% {transform: translate(49.007451px,54.566px)} 100% {transform: translate(41.207451px,49.566px)}}]]></style><path id="eAQKdR9Fr8H2" d="M46.4701,89.4286C21.556,101.755,2.93598,81.2987,0.837949,73.4311C0.400861,69.4099,-0.001261,60.1086,1.88697,55.0733C-3.88262,47.7302,5.29627,36.191,9.23008,36.191C10.5413,32.5195,16.5732,23.6029,21.0315,20.7181C27.3256,19.669,37.6409,21.1552,42.0118,22.0293L46.9946,11.2769C44.984,10.4027,40.5432,8.39213,38.8648,7.34311C37.6059,3.56665,41.1376,0.87418,43.0608,0C50.3165,3.32188,65.4049,10.3853,67.7127,12.0637C68.9715,16.4695,65.7895,18.62,64.0411,19.1445L55.1245,15.2107C54.2503,17.3088,52.1348,22.344,50.6662,25.7009C56.9603,29.8969,64.3034,39.1633,67.1882,43.2719C67.2756,46.5064,67.0833,54.3915,65.6147,60.0562C70.4401,70.9659,62.2054,78.4139,57.4848,80.7742C55.9987,82.3477,51.7152,86.2815,46.4701,89.4286Z" fill="rgb(248,3,52)" stroke="none" stroke-width="1"/><path id="eAQKdR9Fr8H3" d="M65.6143,60.3184C62.1175,61.8045,54.8619,69.4448,56.9599,80.7742C63.254,79.9874,70.5971,70.8086,65.6143,60.3184Z" fill="rgb(255,158,0)" stroke="none" stroke-width="1"/><path id="eAQKdR9Fr8H4" d="M9.22967,36.191C5.03361,36.191,-3.88303,47.7302,1.88655,55.0733C3.98458,50.4577,7.74356,40.4745,9.22967,36.191Z" fill="rgb(255,158,0)" stroke="none" stroke-width="1"/><path id="eAQKdR9Fr8H5" d="M12.9012,50.615C7.0267,47.8876,6.6071,44.0586,7.13161,42.4851C8.44288,39.1632,11.4326,31.8376,12.9012,29.1102C14.9992,27.5366,22.0801,27.0121,30.4722,27.7989C47.2565,29.8969,55.3863,41.4361,59.8447,46.6812C64.303,51.9263,57.7466,64.5145,55.3863,66.088C53.0261,67.6615,44.8962,69.4973,37.2908,61.1052C29.6854,52.713,21.8178,50.615,12.9012,50.615Z" fill="rgb(254,155,0)" stroke="none" stroke-width="1"/><path id="eAQKdR9Fr8H6" d="M55.6486,49.8283C55.6486,57.3462,50.952,61.1052,45.1585,61.1052C39.3649,61.1052,34.6683,56.0564,34.6683,49.8283C34.6683,43.6002,39.3649,38.5514,45.1585,38.5514C50.952,38.5514,55.6486,43.6002,55.6486,49.8283Z" fill="rgb(255,255,255)" stroke="none" stroke-width="1"/><path id="eAQKdR9Fr8H7" d="M25.7517,39.3381C25.0668,44.3609,21.0628,49.0415,16.5728,49.0415C12.0828,49.0415,8.7052,47.2057,8.7052,39.8626C10.2787,33.044,13.9503,30.1592,19.1954,30.1592C23.6537,31.4704,26.5385,33.5685,25.7517,39.3381Z" fill="rgb(255,255,255)" stroke="none" stroke-width="1"/><g id="eAQKdR9Fr8H8_to" transform="translate(17.933002,40.649399)"><circle id="eAQKdR9Fr8H8" r="4.72057" transform="translate(-0.000002,0.000001)" fill="rgb(0,0,0)" stroke="none" stroke-width="1"/></g><g id="eAQKdR9Fr8H9_to" transform="translate(45.207451,49.566)"><path id="eAQKdR9Fr8H9" d="M50.928,49.566C50.928,52.1731,48.8145,54.2866,46.2074,54.2866C43.6003,54.2866,41.4869,52.1731,41.4869,49.566C41.4869,46.9589,43.6003,44.8454,46.2074,44.8454C48.8145,44.8454,50.928,46.9589,50.928,49.566Z" transform="translate(-46.207451,-49.566)" fill="rgb(0,0,0)" stroke="none" stroke-width="1"/></g><path id="eAQKdR9Fr8H10" d="M20.2443,58.2204C14.7895,54.8636,8.00582,55.0734,5.29586,55.5979C4.94619,57.1714,5.29586,63.413,9.49193,75.7914C13.688,88.1698,25.9265,89.3412,31.5213,88.3796C35.9796,86.8061,45.4732,81.8757,47.781,74.7424C42.7982,74.7424,27.0629,62.4165,20.2443,58.2204Z" fill="rgb(153,1,0)" stroke="rgb(0,0,0)" stroke-width="1"/><path id="eAQKdR9Fr8H11" d="M34.9305,68.9727C17.3071,65.8257,12.2893,74.1304,11.0654,78.1516C13.688,84.9702,25.3573,90.1739,32.308,87.3305C38.0776,84.9702,45.6829,79.9875,46.9942,75.2669C42.5359,74.2179,41.854,73.3786,34.9305,68.9727Z" fill="rgb(255,0,50)" stroke="rgb(255,0,50)" stroke-width="1"/><path id="eAQKdR9Fr8H12" d="M67.9745,14.6862C67.9745,16.5691,65.4617,19.1445,64.303,19.1445C62.7294,18.8822,60.3691,17.571,61.1559,13.8994C61.6804,12.0638,63.2539,9.96567,65.6142,10.7524C68.2368,11.6265,67.9745,12.5882,67.9745,14.6862Z" fill="rgb(254,155,0)" stroke="none" stroke-width="1"/><path id="eAQKdR9Fr8H13" d="M19.1953,54.5488C18.1463,55.5979,18.4085,56.5595,18.6708,56.9091C19.0205,57.2588,20.7688,58.4826,24.9649,60.5806C24.7551,57.2238,27.6748,54.8111,29.1609,54.0243C33.5318,47.2931,42.2736,33.3062,42.2736,31.2082C42.2736,29.1102,46.2949,26.8373,48.3055,25.9631C46.12,25.1764,41.5918,23.498,40.9624,23.0784C40.1756,22.5539,37.0286,24.3896,35.7173,27.7989C34.406,31.2082,20.5066,53.2376,19.1953,54.5488Z" fill="rgb(250,255,0)" fill-opacity="0.43" stroke="none" stroke-width="1"/></svg>